<?xml version="1.0" encoding="UTF-8"?>
<svg version="1.1" xmlns="http://www.w3.org/2000/svg" width="512" height="512">
<path d="M0 0 C0.67914459 0.00215515 1.35828918 0.0043103 2.05801392 0.00653076 C12.89819663 0.06156272 23.28807401 0.62327068 33.8125 3.3125 C34.61155762 3.51649414 35.41061523 3.72048828 36.23388672 3.93066406 C47.89808621 7.00737938 58.97245343 11.03158886 69.8125 16.3125 C70.8344043 16.80508301 70.8344043 16.80508301 71.87695312 17.30761719 C92.64982527 27.44377769 109.85688758 41.81131935 126.8125 57.3125 C130.60071078 55.73187126 133.06134815 53.33088747 136 50.5 C168.3700886 20.18660248 210.02540817 0.10165932 254.75 0.0625 C255.44191437 0.06182526 256.13382874 0.06115051 256.84671021 0.06045532 C267.46442656 0.07689784 277.49171945 0.6039777 287.8125 3.3125 C288.78533936 3.56193359 288.78533936 3.56193359 289.77783203 3.81640625 C322.84053178 12.50230159 349.33154638 33.63040152 366.90625 62.734375 C377.36057551 80.76964406 383.88459101 103.20817332 384.015625 124.0546875 C384.02132507 124.78132599 384.02702515 125.50796448 384.03289795 126.25662231 C384.04229519 127.7911842 384.04886079 129.32576579 384.05273438 130.86035156 C384.0623295 133.14687059 384.09335565 135.43244544 384.125 137.71875 C384.22569069 151.59982862 382.2726469 164.90487833 378.125 178.1875 C377.87008789 179.01499756 377.61517578 179.84249512 377.35253906 180.69506836 C367.54757353 211.57719547 350.35454442 239.4319758 329.8125 264.3125 C328.68134766 265.72982422 328.68134766 265.72982422 327.52734375 267.17578125 C322.77188995 273.10542118 317.76362775 278.73433732 312.5859375 284.29296875 C310.57393983 286.45708866 308.64260408 288.67589282 306.72265625 290.921875 C302.20577832 296.10412001 297.33794957 300.93689643 292.4699707 305.78540039 C290.87791034 307.37209946 289.2912701 308.96407742 287.70507812 310.55664062 C282.24521494 316.02007322 276.68581523 321.29218759 270.8125 326.3125 C269.03679779 327.93217817 267.26541693 329.55661718 265.5 331.1875 C260.61913191 335.63436477 255.58874476 339.83678901 250.44970703 343.97998047 C248.58861932 345.49471604 246.74492794 347.02921785 244.90234375 348.56640625 C235.42459653 356.46251528 225.7736576 364.03625894 215.8125 371.3125 C215.09449219 371.8369873 214.37648438 372.36147461 213.63671875 372.90185547 C209.11854332 376.19454505 204.58452034 379.46452141 200.03857422 382.71875 C198.58590573 383.75878289 197.13435467 384.80037882 195.68408203 385.84375 C178.38965859 398.27727886 160.48013495 409.77473638 142.26074219 420.80419922 C140.54941574 421.85850464 138.85858916 422.94649091 137.18457031 424.05908203 C136.32186523 424.61837402 135.45916016 425.17766602 134.5703125 425.75390625 C133.80090332 426.26767822 133.03149414 426.7814502 132.23876953 427.31079102 C128.98657639 428.6534906 127.17681767 428.24360529 123.8125 427.3125 C121.26831055 426.0793457 121.26831055 426.0793457 118.69921875 424.48828125 C117.71501953 423.88282471 116.73082031 423.27736816 115.71679688 422.65356445 C114.12448242 421.64942505 114.12448242 421.64942505 112.5 420.625 C111.36663749 419.9180509 110.23317122 419.21126811 109.09960938 418.50463867 C87.86457895 405.19940887 66.89682631 391.30338022 46.8125 376.3125 C45.43366131 375.29157542 44.05475401 374.27074348 42.67578125 373.25 C21.44332077 357.47595521 0.88143541 340.84791797 -18.50854492 322.84790039 C-19.78276131 321.68263256 -21.06896733 320.53045894 -22.3605957 319.38452148 C-28.57142573 313.86769414 -34.52475621 308.13068337 -40.3840332 302.24633789 C-41.88054925 300.74443075 -43.382383 299.24798938 -44.88476562 297.75195312 C-50.19630732 292.44440351 -55.32429889 287.03775325 -60.1875 281.3125 C-61.13652492 280.22915648 -62.08699323 279.1470753 -63.0390625 278.06640625 C-103.76603823 231.38434491 -131.21902678 179.51104908 -128.1875 116.3125 C-125.374914 82.02987959 -108.20893709 50.37642603 -82.3125 28.0625 C-69.04825154 17.39305948 -54.26603674 9.95810747 -38.0625 5 C-36.88288696 4.63624268 -36.88288696 4.63624268 -35.67944336 4.26513672 C-23.90065137 0.83818274 -12.22564252 -0.05307256 0 0 Z " fill="#000000" transform="translate(128.1875,41.6875)"/>
</svg>
